
<svg xmlns="http://www.w3.org/2000/svg" version="1.1" id="svg2" xml:space="preserve" width="300" height="300" viewBox="0 0 300 300"><defs id="defs6"></defs><g id="g10" transform="matrix(1.3333333,0,0,-1.3333333,18.541497,460.41116)"><g id="g850"><path d="m 211.09388,232.81016 c 0,62.13202 -50.36539,112.49822 -112.499999,112.49822 -62.131033,0 -112.500004,-50.3662 -112.500004,-112.49822 0,-62.1356 50.368971,-112.50179 112.500004,-112.50179 62.134609,0 112.499999,50.36619 112.499999,112.50179" style="fill:#ed1c24;fill-opacity:1;fill-rule:nonzero;stroke:none;stroke-width:0.357838" id="path58"></path><path d="m 194.65651,232.80844 c 0,53.05359 -43.00901,96.06256 -96.062632,96.06256 -53.053621,0 -96.0626251,-43.00897 -96.0626251,-96.06256 0,-53.05358 43.0090041,-96.06255 96.0626251,-96.06255 53.053622,0 96.062632,43.00897 96.062632,96.06255" style="fill:#2e3192;fill-opacity:1;fill-rule:nonzero;stroke:none;stroke-width:0.357841" id="path60"></path><path d="m 179.24661,232.81016 c 0,44.5409 -36.10924,80.65097 -80.652666,80.65097 -44.543428,0 -80.652661,-36.11007 -80.652661,-80.65097 0,-44.54446 36.109233,-80.65453 80.652661,-80.65453 44.543426,0 80.652666,36.11007 80.652666,80.65453" style="fill:#fff200;fill-opacity:1;fill-rule:nonzero;stroke:none;stroke-width:0.357839" id="path62"></path></g></g></svg>
