<svg width="459" height="675" xmlns="http://www.w3.org/2000/svg" xmlns:xlink="http://www.w3.org/1999/xlink" overflow="hidden"><defs><clipPath id="clip0"><rect x="-6826" y="-2938" width="459" height="675"></rect></clipPath></defs><g clip-path="url(#clip0)" transform="translate(6826 2938)"><path d="M-6596.5-2937C-6727.68-2835.55-6825-2913.43-6825-2913.43-6825-2913.43-6825-2553.43-6825-2472.74-6825-2341.55-6596.5-2296.44-6596.5-2263-6596.5-2296.33-6368-2341.55-6368-2472.74-6368-2553.43-6368-2913.43-6368-2913.43-6368-2913.43-6465.32-2835.55-6596.5-2937Z" fill="#F2D43C" fill-rule="evenodd"></path><path d="M-6596.39-2905.13C-6551.99-2874.6-6506.47-2859.12-6460.83-2859.12-6434.04-2859.12-6411.28-2864.62-6393.56-2871.13L-6393.56-2472.74C-6393.56-2401.59-6486.4-2356.37-6547.84-2326.52-6567.69-2316.87-6584.05-2308.9-6596.39-2300.71-6608.72-2308.9-6625.2-2316.87-6644.94-2326.52-6706.38-2356.48-6799.21-2401.59-6799.21-2472.74L-6799.21-2871.13C-6781.5-2864.5-6758.62-2859.12-6731.94-2859.12-6686.31-2859.12-6640.79-2874.6-6596.39-2905.13M-6596.39-2937C-6648.08-2896.94-6694.6-2884.82-6731.94-2884.82-6789.23-2884.82-6825-2913.43-6825-2913.43-6825-2913.43-6825-2553.43-6825-2472.74-6825-2341.55-6596.5-2296.44-6596.5-2263-6596.5-2296.33-6368-2341.55-6368-2472.74-6368-2553.43-6368-2913.43-6368-2913.43-6368-2913.43-6403.77-2884.82-6461.06-2884.82-6498.17-2884.93-6544.59-2897.05-6596.39-2937L-6596.39-2937Z" fill="#223390" fill-rule="evenodd"></path><path d="M-6557.23-2482.53-6557.23-2831-6644.81-2831-6714-2742.62-6714-2713.2-6660.29-2713.2-6658.83-2482.53-6704.8-2482.53-6704.8-2432-6508-2432-6508-2482.53Z" fill="#C21D2A" fill-rule="evenodd"></path></g></svg>