<svg width="519" height="630" xmlns="http://www.w3.org/2000/svg" xmlns:xlink="http://www.w3.org/1999/xlink" overflow="hidden"><defs><clipPath id="clip0"><rect x="-4961" y="-583" width="519" height="630"></rect></clipPath></defs><g clip-path="url(#clip0)" transform="translate(4961 583)"><path d="M-4478.57-98.7456-4521.42-455C-4521.42-483.277-4556.99-522.886-4611.07-525.242-4627.23-602.776-4772.63-601.205-4788-526.813-4885.73-500.107-4880.9-446.024-4880.9-446.024L-4918.04-103.459C-4944.74-88.0865-4960-69.5723-4960-50.1607-4960 3.13727-4844.44 46.0001-4701.5 46.0001-4558.56 46.0001-4443 3.13727-4443-50.1607-4443-68.0011-4455.9-85.0567-4478.57-98.7456Z" fill="#004098" fill-rule="evenodd"></path><path d="M-4612-117-4641.81-147.634-4641.81-230.112-4613.57-230.112-4613.57-251.88-4641.81-251.88-4641.81-300.357-4613.57-300.357-4613.57-322.126-4641.81-322.126-4641.81-411-4783-411-4753.98-380.365-4753.98-117Z" fill="#FFFFFF" fill-rule="evenodd"></path><path d="M-4858.84-94C-4902.44-82.6775-4929-65.7498-4929-47.1411-4929-10.8197-4827.35 19-4701.5 19-4575.65 19-4474-10.8197-4474-47.1411-4474-65.7498-4500.67-81.8926-4543.37-94" stroke="#FFFFFF" stroke-width="16.4497" stroke-miterlimit="8" fill="none" fill-rule="evenodd"></path><path d="M-4886-86.0001-4855-438" stroke="#FFFFFF" stroke-width="16.4497" stroke-miterlimit="8" fill="none" fill-rule="evenodd"></path><path d="M-4854.99-438C-4854.99-438-4857.46-485.412-4766.82-501.476-4753.91-577.002-4630.91-560.156-4630.91-501.476-4594.52-501.476-4547.57-472.583-4546-443.689" stroke="#FFFFFF" stroke-width="16.4497" stroke-miterlimit="8" fill="none" fill-rule="evenodd"></path><path d="M-4546-443-4512-81.9996" stroke="#FFFFFF" stroke-width="16.4497" stroke-miterlimit="8" fill="none" fill-rule="evenodd"></path></g></svg>