
<svg xmlns="http://www.w3.org/2000/svg" version="1.1" id="svg2" xml:space="preserve" width="499.99997" height="500" viewBox="0 0 499.99998 500"><defs id="defs6"><clipPath clipPathUnits="userSpaceOnUse" id="clipPath3930"><path d="m 12289.2,1899.39 -425.8,-425.74 -425.7,425.74 425.7,425.74 z" id="path3928"></path></clipPath></defs><g id="g10" transform="matrix(1.3333333,0,0,-1.3333333,-872.89611,-190.80981)"><g id="g4830" transform="matrix(3.6184685,0,0,3.6185735,-1714.2382,374.7371)"><g id="g4823"><path d="m 758.30708,-194.92375 c 0,28.6153 -23.202,51.8164 -51.814,51.8164 -28.617,0 -51.821,-23.2011 -51.821,-51.8164 0,-28.6191 23.204,-51.8156 51.821,-51.8156 28.612,-0.003 51.814,23.1965 51.814,51.8156" style="fill:#ed1c24;fill-opacity:1;fill-rule:nonzero;stroke:none;stroke-width:0.1" id="path3568"></path><path d="m 749.44908,-194.92375 c 0,23.7254 -19.228,42.9617 -42.956,42.9617 -23.727,0 -42.967,-19.2363 -42.967,-42.9617 0,-23.7297 19.24,-42.96404 42.967,-42.96404 23.728,0 42.956,19.23434 42.956,42.96404 z" style="fill:none;stroke:#ffffff;stroke-width:5.5904;stroke-linecap:butt;stroke-linejoin:miter;stroke-miterlimit:4;stroke-dasharray:none;stroke-opacity:1" id="path3570"></path><path d="m 723.76408,-209.43855 c 0,9.6203 -7.797,17.4199 -17.419,17.4199 -9.62,0 -17.417,-7.7996 -17.417,-17.4199 0,-9.6219 7.797,-17.4188 17.417,-17.4188 9.622,0 17.419,7.7969 17.419,17.4188 z" style="fill:none;stroke:#ffffff;stroke-width:7.1149;stroke-linecap:butt;stroke-linejoin:miter;stroke-miterlimit:4;stroke-dasharray:none;stroke-opacity:1" id="path3572"></path><path d="m 706.34508,-192.01865 v 22.4941 h 19.594" style="fill:none;stroke:#ffffff;stroke-width:10.1642;stroke-linecap:butt;stroke-linejoin:miter;stroke-miterlimit:4;stroke-dasharray:none;stroke-opacity:1" id="path3574"></path></g></g></g></svg>
