<svg width="451" height="649" xmlns="http://www.w3.org/2000/svg" xmlns:xlink="http://www.w3.org/1999/xlink" overflow="hidden"><defs><clipPath id="clip0"><rect x="525" y="2922" width="451" height="649"></rect></clipPath></defs><g clip-path="url(#clip0)" transform="translate(-525 -2922)"><path d="M903.209 3180.75C916.984 3156.08 924.265 3127.72 924.265 3097.22 924.265 3001.37 846.65 2923 750.892 2923 654.462 2923 576.063 3001.37 576.063 3097.22 576.063 3127.72 583.343 3156.08 597.118 3180.75 552.88 3221.44 526 3280.19 526 3344.88 526 3468.99 626.126 3570 750.892 3570 874.874 3570 975 3469.1 975 3344.88 975 3280.19 947.448 3221.44 903.209 3180.75Z" fill="#E60012" fill-rule="evenodd"></path><path d="M827.514 3187.91C853.594 3166.15 869.601 3133.39 869.601 3097.15 869.601 3031.74 815.984 2978 750.728 2978 684.799 2978 631.071 3031.74 631.071 3097.15 631.071 3133.5 647.749 3166.15 673.158 3187.91 615.177 3216.97 576 3275.87 576 3344.87 576 3441.47 654.241 3520 750.728 3520 846.43 3520 924 3441.58 924 3344.87 924 3275.87 885.495 3216.97 827.514 3187.91Z" fill="#FFF100" fill-rule="evenodd"></path></g></svg>